<svg width="10" height="10" viewBox="0 0 10 10" fill="none" xmlns="http://www.w3.org/2000/svg">
<g clip-path="url(#clip0_1_14570)">
<g clip-path="url(#clip1_1_14570)">
<g clip-path="url(#clip2_1_14570)">
<path fill-rule="evenodd" clip-rule="evenodd" d="M4.60801 0.26405C4.63965 0.186021 4.69386 0.119209 4.76369 0.0721691C4.83353 0.0251287 4.91581 0 5.00001 0C5.08421 0 5.16649 0.0251287 5.23633 0.0721691C5.30616 0.119209 5.36037 0.186021 5.39201 0.26405L6.54801 3.10405L9.60801 3.32605C9.69206 3.332 9.77242 3.36292 9.83878 3.41484C9.90515 3.46676 9.95449 3.53732 9.98049 3.61747C10.0065 3.69762 10.008 3.78371 9.98472 3.8647C9.96147 3.94569 9.91456 4.01789 9.85001 4.07205L7.50501 6.04905L8.23901 9.02705C8.25927 9.10875 8.2547 9.19464 8.22588 9.27372C8.19705 9.35281 8.14529 9.4215 8.07721 9.471C8.00913 9.5205 7.92783 9.54857 7.84372 9.5516C7.7596 9.55464 7.67648 9.53251 7.60501 9.48805L5.00001 7.87005L2.39501 9.49005C2.32346 9.53464 2.24022 9.55684 2.15597 9.55379C2.07171 9.55073 1.99029 9.52258 1.92216 9.47293C1.85402 9.42327 1.80228 9.35439 1.77356 9.27513C1.74485 9.19586 1.74048 9.10982 1.76101 9.02805L2.49501 6.05005L0.15001 4.07205C0.0854169 4.01783 0.0385044 3.94554 0.015296 3.86447C-0.00791229 3.78339 -0.00635699 3.69723 0.0197623 3.61705C0.0458815 3.53686 0.0953723 3.46631 0.16188 3.41446C0.228388 3.36261 0.308876 3.33182 0.39301 3.32605L3.45201 3.10505L4.60801 0.26405Z" fill="#F39325"/>
</g>
</g>
<g clip-path="url(#clip3_1_14570)">
<path fill-rule="evenodd" clip-rule="evenodd" d="M4.60807 0.26366C4.67299 0.104186 4.82796 0 5 0C5.17204 0 5.32701 0.104186 5.39193 0.26366L6.54803 3.10486L9.60745 3.32643C9.77907 3.33878 9.92608 3.45396 9.97927 3.61762C10.0325 3.78129 9.98116 3.96086 9.84964 4.07186L7.50477 6.0493L8.23941 9.02747C8.28067 9.19458 8.21659 9.36997 8.07732 9.47112C7.93816 9.57227 7.75146 9.57897 7.60539 9.48819L5 7.86916L2.39461 9.48819C2.24854 9.57897 2.06184 9.57227 1.92268 9.47112C1.78341 9.36997 1.71933 9.19458 1.76059 9.02747L2.49523 6.0493L0.150357 4.07186C0.0188416 3.96086 -0.0324663 3.78129 0.0207264 3.61762C0.0739191 3.45396 0.220932 3.33878 0.392552 3.32643L3.45197 3.10486L4.60807 0.26366Z" fill="#F39325"/>
</g>
</g>
<defs>
<clipPath id="clip0_1_14570">
<rect width="10" height="10" fill="white"/>
</clipPath>
<clipPath id="clip1_1_14570">
<rect width="10" height="10" fill="white"/>
</clipPath>
<clipPath id="clip2_1_14570">
<rect width="554" height="523" fill="white" transform="translate(-397 -373)"/>
</clipPath>
<clipPath id="clip3_1_14570">
<rect width="10" height="10" fill="white"/>
</clipPath>
</defs>
</svg>
